<?xml version="1.0" encoding="UTF-8" standalone="no"?>
<!DOCTYPE svg PUBLIC "-//W3C//DTD SVG 1.1//EN"
 "http://www.w3.org/Graphics/SVG/1.1/DTD/svg11.dtd">
<!-- Generated by graphviz version 14.1.5 (20260411.2331)
 -->
<!-- Title: BTree Pages: 1 -->
<svg width="278pt" height="191pt"
 viewBox="0.00 0.00 278.00 191.00" xmlns="http://www.w3.org/2000/svg" xmlns:xlink="http://www.w3.org/1999/xlink">
<g id="graph0" class="graph" transform="scale(1 1) rotate(0) translate(4 187)">
<title>BTree</title>
<polygon fill="white" stroke="none" points="-4,4 -4,-187 274,-187 274,4 -4,4"/>
<!-- node0 -->
<g id="node1" class="node">
<title>node0</title>
<polygon fill="none" stroke="black" points="108,-146.5 108,-182.5 162,-182.5 162,-146.5 108,-146.5"/>
<text xml:space="preserve" text-anchor="middle" x="134.88" y="-159.45" font-family="Times New Roman,serif" font-size="14.00">6</text>
</g>
<!-- node1 -->
<g id="node2" class="node">
<title>node1</title>
<polygon fill="none" stroke="black" points="72,-73.5 72,-109.5 126,-109.5 126,-73.5 72,-73.5"/>
<text xml:space="preserve" text-anchor="middle" x="98.88" y="-86.45" font-family="Times New Roman,serif" font-size="14.00">3</text>
</g>
<!-- node0&#45;&gt;node1 -->
<g id="edge3" class="edge">
<title>node0&#45;&gt;node1</title>
<path fill="none" stroke="black" d="M126.29,-146.31C122.22,-138.29 117.28,-128.55 112.73,-119.57"/>
<polygon fill="black" stroke="black" points="115.96,-118.21 108.32,-110.88 109.72,-121.38 115.96,-118.21"/>
</g>
<!-- node4 -->
<g id="node5" class="node">
<title>node4</title>
<polygon fill="none" stroke="black" points="144,-73.5 144,-109.5 198,-109.5 198,-73.5 144,-73.5"/>
<text xml:space="preserve" text-anchor="middle" x="170.88" y="-86.45" font-family="Times New Roman,serif" font-size="14.00">9</text>
</g>
<!-- node0&#45;&gt;node4 -->
<g id="edge6" class="edge">
<title>node0&#45;&gt;node4</title>
<path fill="none" stroke="black" d="M143.71,-146.31C147.78,-138.29 152.72,-128.55 157.27,-119.57"/>
<polygon fill="black" stroke="black" points="160.28,-121.38 161.68,-110.88 154.04,-118.21 160.28,-121.38"/>
</g>
<!-- node2 -->
<g id="node3" class="node">
<title>node2</title>
<polygon fill="none" stroke="black" points="0,-0.5 0,-36.5 54,-36.5 54,-0.5 0,-0.5"/>
<text xml:space="preserve" text-anchor="middle" x="26.88" y="-13.45" font-family="Times New Roman,serif" font-size="14.00">1</text>
</g>
<!-- node1&#45;&gt;node2 -->
<g id="edge1" class="edge">
<title>node1&#45;&gt;node2</title>
<path fill="none" stroke="black" d="M81.57,-73.31C72.88,-64.74 62.2,-54.21 52.6,-44.74"/>
<polygon fill="black" stroke="black" points="55.17,-42.37 45.6,-37.84 50.26,-47.35 55.17,-42.37"/>
</g>
<!-- node3 -->
<g id="node4" class="node">
<title>node3</title>
<polygon fill="none" stroke="black" points="72,-0.5 72,-36.5 126,-36.5 126,-0.5 72,-0.5"/>
<text xml:space="preserve" text-anchor="middle" x="98.88" y="-13.45" font-family="Times New Roman,serif" font-size="14.00">4</text>
</g>
<!-- node1&#45;&gt;node3 -->
<g id="edge2" class="edge">
<title>node1&#45;&gt;node3</title>
<path fill="none" stroke="black" d="M99,-73.31C99,-65.73 99,-56.6 99,-48.04"/>
<polygon fill="black" stroke="black" points="102.5,-48.04 99,-38.04 95.5,-48.04 102.5,-48.04"/>
</g>
<!-- node5 -->
<g id="node6" class="node">
<title>node5</title>
<polygon fill="none" stroke="black" points="144,-0.5 144,-36.5 198,-36.5 198,-0.5 144,-0.5"/>
<text xml:space="preserve" text-anchor="middle" x="170.88" y="-13.45" font-family="Times New Roman,serif" font-size="14.00">7</text>
</g>
<!-- node4&#45;&gt;node5 -->
<g id="edge4" class="edge">
<title>node4&#45;&gt;node5</title>
<path fill="none" stroke="black" d="M171,-73.31C171,-65.73 171,-56.6 171,-48.04"/>
<polygon fill="black" stroke="black" points="174.5,-48.04 171,-38.04 167.5,-48.04 174.5,-48.04"/>
</g>
<!-- node6 -->
<g id="node7" class="node">
<title>node6</title>
<polygon fill="none" stroke="black" points="216,-0.5 216,-36.5 270,-36.5 270,-0.5 216,-0.5"/>
<text xml:space="preserve" text-anchor="middle" x="242.75" y="-13.45" font-family="Times New Roman,serif" font-size="14.00">13</text>
</g>
<!-- node4&#45;&gt;node6 -->
<g id="edge5" class="edge">
<title>node4&#45;&gt;node6</title>
<path fill="none" stroke="black" d="M188.43,-73.31C197.12,-64.74 207.8,-54.21 217.4,-44.74"/>
<polygon fill="black" stroke="black" points="219.74,-47.35 224.4,-37.84 214.83,-42.37 219.74,-47.35"/>
</g>
</g>
</svg>
